<svg viewBox="0 0 378 172" xmlns="http://www.w3.org/2000/svg" role="img" aria-label="Nuaire logo">
	<path d="M286.00,57.00 L280.00,57.00 L272.00,61.00 L270.00,59.00 L270.00,57.00 L259.00,57.00 L257.00,59.00 L257.00,62.00 L256.00,63.00 L256.00,67.00 L255.00,68.00 L255.00,72.00 L254.00,73.00 L254.00,77.00 L253.00,78.00 L253.00,83.00 L252.00,84.00 L252.00,88.00 L251.00,89.00 L251.00,91.00 L252.00,92.00 L263.00,92.00 L265.00,89.00 L265.00,85.00 L266.00,84.00 L266.00,80.00 L267.00,79.00 L268.00,73.00 L273.00,68.00 L275.00,67.00 L284.00,67.00 L285.00,66.00 L285.00,63.00 L286.00,62.00 Z M246.00,57.00 L235.00,57.00 L234.00,58.00 L233.00,66.00 L232.00,67.00 L232.00,71.00 L231.00,72.00 L231.00,76.00 L230.00,77.00 L230.00,81.00 L229.00,82.00 L229.00,86.00 L228.00,87.00 L228.00,91.00 L229.00,92.00 L240.00,92.00 L241.00,91.00 L241.00,89.00 L242.00,88.00 L242.00,84.00 L243.00,83.00 L243.00,79.00 L244.00,78.00 L245.00,68.00 L246.00,67.00 L246.00,63.00 L247.00,62.00 L247.00,58.00 Z M129.00,60.00 L129.00,64.00 L128.00,65.00 L128.00,69.00 L127.00,70.00 L127.00,74.00 L126.00,75.00 L126.00,85.00 L129.00,89.00 L133.00,91.00 L135.00,91.00 L136.00,92.00 L151.00,92.00 L152.00,91.00 L155.00,91.00 L156.00,90.00 L160.00,89.00 L165.00,84.00 L167.00,80.00 L168.00,72.00 L169.00,71.00 L169.00,67.00 L170.00,66.00 L170.00,62.00 L171.00,61.00 L171.00,58.00 L170.00,57.00 L159.00,57.00 L158.00,58.00 L154.00,78.00 L150.00,82.00 L148.00,83.00 L143.00,83.00 L139.00,78.00 L140.00,77.00 L140.00,72.00 L141.00,71.00 L141.00,67.00 L142.00,66.00 L143.00,58.00 L142.00,57.00 L131.00,57.00 Z M324.00,59.00 L320.00,57.00 L316.00,57.00 L315.00,56.00 L307.00,56.00 L306.00,57.00 L303.00,57.00 L302.00,58.00 L300.00,58.00 L296.00,60.00 L289.00,67.00 L287.00,71.00 L287.00,73.00 L286.00,74.00 L286.00,81.00 L287.00,82.00 L288.00,86.00 L293.00,90.00 L297.00,91.00 L298.00,92.00 L312.00,92.00 L313.00,91.00 L315.00,91.00 L316.00,90.00 L320.00,89.00 L325.00,85.00 L326.00,81.00 L315.00,81.00 L310.00,84.00 L303.00,84.00 L299.00,80.00 L299.00,78.00 L301.00,76.00 L328.00,76.00 L329.00,75.00 L329.00,66.00 L328.00,65.00 L328.00,63.00 Z M302.00,68.00 L306.00,64.00 L309.00,64.00 L310.00,63.00 L314.00,64.00 L317.00,67.00 L317.00,68.00 L315.00,70.00 L304.00,70.00 Z M180.00,64.00 L175.00,74.00 L175.00,81.00 L176.00,82.00 L176.00,84.00 L180.00,89.00 L184.00,91.00 L186.00,91.00 L187.00,92.00 L196.00,92.00 L202.00,89.00 L203.00,89.00 L205.00,91.00 L217.00,91.00 L218.00,89.00 L218.00,86.00 L219.00,85.00 L220.00,76.00 L221.00,75.00 L221.00,70.00 L222.00,69.00 L223.00,60.00 L224.00,59.00 L223.00,57.00 L212.00,57.00 L210.00,59.00 L208.00,59.00 L202.00,56.00 L195.00,56.00 L194.00,57.00 L188.00,58.00 Z M198.00,66.00 L202.00,66.00 L204.00,67.00 L208.00,71.00 L208.00,74.00 L207.00,75.00 L207.00,77.00 L204.00,80.00 L200.00,82.00 L194.00,82.00 L189.00,78.00 L189.00,74.00 L191.00,70.00 L193.00,68.00 L197.00,67.00 Z M116.00,59.00 L115.00,59.00 L113.00,57.00 L110.00,57.00 L109.00,56.00 L103.00,56.00 L102.00,57.00 L99.00,57.00 L94.00,60.00 L91.00,57.00 L80.00,57.00 L79.00,58.00 L79.00,61.00 L78.00,62.00 L78.00,66.00 L77.00,67.00 L77.00,71.00 L76.00,72.00 L76.00,76.00 L75.00,77.00 L75.00,81.00 L74.00,82.00 L73.00,91.00 L85.00,91.00 L86.00,90.00 L86.00,88.00 L87.00,87.00 L87.00,83.00 L88.00,82.00 L88.00,78.00 L89.00,77.00 L90.00,71.00 L94.00,66.00 L96.00,66.00 L97.00,65.00 L100.00,65.00 L104.00,68.00 L104.00,74.00 L103.00,75.00 L103.00,79.00 L102.00,80.00 L102.00,84.00 L101.00,85.00 L101.00,91.00 L113.00,91.00 L114.00,90.00 L115.00,82.00 L116.00,81.00 L116.00,77.00 L117.00,76.00 L117.00,72.00 L118.00,71.00 L118.00,63.00 Z M235.00,37.00 L244.00,39.00 L246.00,40.00 L250.00,44.00 L250.00,47.00 L246.00,51.00 L252.00,50.00 L256.00,47.00 L256.00,42.00 L249.00,38.00 L246.00,38.00 L245.00,37.00 Z M11.00,30.00 L7.00,39.00 L9.00,56.00 L18.00,71.00 L32.00,85.00 L50.00,98.00 L82.00,115.00 L107.00,125.00 L139.00,134.00 L91.00,115.00 L44.00,87.00 L27.00,70.00 L21.00,60.00 L18.00,50.00 L21.00,35.00 L29.00,27.00 L43.00,21.00 L62.00,18.00 L82.00,18.00 L133.00,27.00 L178.00,44.00 L152.00,31.00 L126.00,22.00 L79.00,13.00 L39.00,15.00 L22.00,21.00 Z" fill="#FFFFFF" fill-rule="evenodd" />
</svg>