<?xml version="1.0" encoding="utf-8"?>
<svg xmlns="http://www.w3.org/2000/svg" viewBox="0 0 2023.1 430.4">
  <defs>
    <style>
      .cls-1 {
        fill: #b7b7b7;
        opacity: .37;
      }

      .cls-1, .cls-2, .cls-3, .cls-4, .cls-5, .cls-6, .cls-7, .cls-8, .cls-9, .cls-10, .cls-11, .cls-12, .cls-13, .cls-14, .cls-15, .cls-16, .cls-17, .cls-18, .cls-19, .cls-20, .cls-21, .cls-22, .cls-23, .cls-24, .cls-25, .cls-26, .cls-27, .cls-28, .cls-29, .cls-30, .cls-31, .cls-32, .cls-33, .cls-34, .cls-35, .cls-36, .cls-37, .cls-38, .cls-39, .cls-40, .cls-41, .cls-42, .cls-43, .cls-44, .cls-45, .cls-46, .cls-47, .cls-48, .cls-49, .cls-50, .cls-51, .cls-52 {
        mix-blend-mode: multiply;
      }

      .cls-2 {
        fill: #cacaca;
        opacity: .27;
      }

      .cls-3 {
        fill: #949494;
        opacity: .55;
      }

      .cls-4 {
        fill: #767676;
        opacity: .71;
      }

      .cls-5 {
        fill: #6b6b6b;
        opacity: .76;
      }

      .cls-6 {
        fill: #bebebe;
        opacity: .33;
      }

      .cls-53 {
        fill: url(#_Áåçûìÿííûé_ãðàäèåíò_229-2);
      }

      .cls-7 {
        fill: #fff;
        opacity: 0;
      }

      .cls-8 {
        fill: #e1e1e1;
        opacity: .16;
      }

      .cls-9 {
        fill: #f7f7f7;
        opacity: .04;
      }

      .cls-10 {
        fill: #585858;
        opacity: .86;
      }

      .cls-11 {
        fill: #c6c6c6;
        opacity: .29;
      }

      .cls-54 {
        fill: url(#_Áåçûìÿííûé_ãðàäèåíò_215);
      }

      .cls-12 {
        fill: #454545;
        opacity: .96;
      }

      .cls-13 {
        fill: #4c4c4c;
        opacity: .92;
      }

      .cls-14 {
        fill: #5b5b5b;
        opacity: .84;
      }

      .cls-15 {
        fill: #fbfbfb;
        opacity: .02;
      }

      .cls-16 {
        fill: #9c9c9c;
        opacity: .51;
      }

      .cls-17 {
        fill: #7a7a7a;
        opacity: .69;
      }

      .cls-18 {
        fill: #d5d5d5;
        opacity: .22;
      }

      .cls-19 {
        fill: #989898;
        opacity: .53;
      }

      .cls-55 {
        fill: url(#_Áåçûìÿííûé_ãðàäèåíò_215-2);
      }

      .cls-20 {
        fill: #676767;
        opacity: .78;
      }

      .cls-21 {
        fill: #898989;
        opacity: .61;
      }

      .cls-22 {
        fill: #7e7e7e;
        opacity: .67;
      }

      .cls-23 {
        fill: #a0a0a0;
        opacity: .49;
      }

      .cls-24 {
        fill: #a4a4a4;
        opacity: .47;
      }

      .cls-56 {
        isolation: isolate;
      }

      .cls-25 {
        fill: #e4e4e4;
        opacity: .14;
      }

      .cls-26 {
        fill: #545454;
        opacity: .88;
      }

      .cls-27 {
        fill: #f0f0f0;
        opacity: .08;
      }

      .cls-28 {
        fill: #bbb;
        opacity: .35;
      }

      .cls-29 {
        fill: #e8e8e8;
        opacity: .12;
      }

      .cls-30 {
        fill: #ddd;
        opacity: .18;
      }

      .cls-31 {
        fill: #484848;
        opacity: .94;
      }

      .cls-32 {
        fill: #c2c2c2;
        opacity: .31;
      }

      .cls-33 {
        fill: #858585;
        opacity: .63;
      }

      .cls-57 {
        fill: url(#_Áåçûìÿííûé_ãðàäèåíò_229);
      }

      .cls-34 {
        fill: #919191;
        opacity: .57;
      }

      .cls-58 {
        fill: url(#_Áåçûìÿííûé_ãðàäèåíò_208-2);
      }

      .cls-35 {
        fill: #d9d9d9;
        opacity: .2;
      }

      .cls-36 {
        fill: #a8a8a8;
        opacity: .45;
      }

      .cls-37 {
        fill: #afafaf;
        opacity: .41;
      }

      .cls-38 {
        fill: #3d3d3d;
      }

      .cls-39 {
        fill: #8d8d8d;
        opacity: .59;
      }

      .cls-40 {
        fill: #636363;
        opacity: .8;
      }

      .cls-41 {
        fill: #d1d1d1;
        opacity: .24;
      }

      .cls-42 {
        fill: #b3b3b3;
        opacity: .39;
      }

      .cls-43 {
        fill: #ececec;
        opacity: .1;
      }

      .cls-59 {
        fill: url(#_Áåçûìÿííûé_ãðàäèåíò_208);
      }

      .cls-44 {
        fill: #818181;
        opacity: .65;
      }

      .cls-45 {
        fill: #cecece;
        opacity: .25;
      }

      .cls-46 {
        fill: #5f5f5f;
        opacity: .82;
      }

      .cls-47 {
        fill: #414141;
        opacity: .98;
      }

      .cls-48 {
        fill: #ababab;
        opacity: .43;
      }

      .cls-49 {
        fill: #505050;
        opacity: .9;
      }

      .cls-50 {
        fill: #727272;
        opacity: .73;
      }

      .cls-51 {
        fill: #6e6e6e;
        opacity: .75;
      }

      .cls-52 {
        fill: #f4f4f4;
        opacity: .06;
      }
    </style>
    <linearGradient id="_Áåçûìÿííûé_ãðàäèåíò_208" data-name="Áåçûìÿííûé ãðàäèåíò 208" x1="1875.8" y1="2325.72" x2="3462.35" y2="2325.72" gradientUnits="userSpaceOnUse">
      <stop offset="0" stop-color="#3b3b3b"/>
      <stop offset="0.12" stop-color="#000"/>
      <stop offset="0.22" stop-color="#030303"/>
      <stop offset="0.31" stop-color="#0e0e0e"/>
      <stop offset="0.39" stop-color="#212121"/>
      <stop offset="0.48" stop-color="#3b3b3b"/>
      <stop offset="0.56" stop-color="#5c5c5c"/>
      <stop offset="0.57" stop-color="#616161"/>
      <stop offset="0.62" stop-color="#525252"/>
      <stop offset="0.78" stop-color="#272727"/>
      <stop offset="0.86" stop-color="#171717"/>
      <stop offset="1" stop-color="#141414"/>
    </linearGradient>
    <radialGradient id="_Áåçûìÿííûé_ãðàäèåíò_229" data-name="Áåçûìÿííûé ãðàäèåíò 229" cx="2686.54" cy="2344.12" r="154.16" gradientTransform="translate(-7192.4 -2377.81) scale(3.67 1.97)" gradientUnits="userSpaceOnUse">
      <stop offset="0" stop-color="#ababab"/>
      <stop offset="0.07" stop-color="#b8b8b8"/>
      <stop offset="0.37" stop-color="#ebebeb"/>
      <stop offset="0.51" stop-color="#fff"/>
      <stop offset="0.55" stop-color="#f8f8f8"/>
      <stop offset="0.7" stop-color="#e4e4e4"/>
      <stop offset="0.85" stop-color="#d8d8d8"/>
      <stop offset="1" stop-color="#d4d4d4"/>
    </radialGradient>
    <radialGradient id="_Áåçûìÿííûé_ãðàäèåíò_215" data-name="Áåçûìÿííûé ãðàäèåíò 215" cx="2684.52" cy="3354.86" r="177.74" gradientTransform="translate(-7192.4 1432.48) scale(3.67 .24)" gradientUnits="userSpaceOnUse">
      <stop offset="0" stop-color="#fff"/>
      <stop offset="0.05" stop-color="#f4f4f4"/>
      <stop offset="0.14" stop-color="#d7d7d7"/>
      <stop offset="0.25" stop-color="#a9a9a9"/>
      <stop offset="0.27" stop-color="#a1a1a1"/>
      <stop offset="0.49" stop-color="#727272"/>
      <stop offset="0.71" stop-color="#494949"/>
      <stop offset="0.89" stop-color="#2f2f2f"/>
      <stop offset="1" stop-color="#262626"/>
    </radialGradient>
    <linearGradient id="_Áåçûìÿííûé_ãðàäèåíò_208-2" data-name="Áåçûìÿííûé ãðàäèåíò 208" x1="2085.84" y1="2218.55" x2="3263.86" y2="2218.55" href="#_Áåçûìÿííûé_ãðàäèåíò_208"/>
    <radialGradient id="_Áåçûìÿííûé_ãðàäèåíò_229-2" data-name="Áåçûìÿííûé ãðàäèåíò 229" cx="2688.11" cy="2299.88" r="114.47" href="#_Áåçûìÿííûé_ãðàäèåíò_229"/>
    <radialGradient id="_Áåçûìÿííûé_ãðàäèåíò_215-2" data-name="Áåçûìÿííûé ãðàäèåíò 215" cx="2686.61" cy="2996.89" r="131.97" href="#_Áåçûìÿííûé_ãðàäèåíò_215"/>
  </defs>
  <g class="cls-56" transform="matrix(1, 0, 0, 1, -1679.97998, -2119.009766)" style="transform-origin: 1679.98px 2119.01px;">
    <g id="_Ñëîé_1" data-name="Ñëîé 1">
      <g>
        <g>
          <g>
            <path class="cls-7" d="M3703.04,2395.26c0,98.78-465,154.14-1038.6,154.14s-984.46-42.77-984.46-141.56c0-80.96,410.86-216.18,984.46-216.18s1038.6,104.81,1038.6,203.59Z"/>
            <path class="cls-15" d="M3699.04,2394.95c.33,97.52-463.93,151.79-1035.4,151.79s-980.99-42.17-980.99-139.45c0-80.64,409.52-212.48,980.99-212.48s1035.06,102.61,1035.4,200.14Z"/>
            <path class="cls-9" d="M3695.04,2394.63c.67,96.25-462.87,149.44-1032.2,149.44s-977.52-41.58-977.52-137.35c0-80.32,408.19-208.78,977.52-208.78s1031.52,100.41,1032.2,196.69Z"/>
            <path class="cls-52" d="M3691.04,2394.32c1,94.98-461.81,147.08-1029,147.08s-974.05-40.98-974.05-135.24c0-80.01,406.85-205.09,974.05-205.09s1027.98,98.22,1029,193.24Z"/>
            <path class="cls-27" d="M3687.04,2394c1.33,93.72-460.74,144.73-1025.81,144.73s-970.58-40.39-970.58-133.13c0-79.69,405.52-201.39,970.58-201.39s1024.45,96.02,1025.81,189.79Z"/>
            <path class="cls-43" d="M3683.04,2393.69c1.67,92.45-459.68,142.38-1022.61,142.38s-967.11-39.79-967.11-131.03c0-79.37,404.18-197.69,967.11-197.69s1020.91,93.82,1022.61,186.34Z"/>
            <path class="cls-29" d="M3679.04,2393.38c2,91.18-458.62,140.03-1019.41,140.03s-963.64-39.19-963.64-128.92c0-79.05,402.85-193.99,963.64-193.99s1017.37,91.63,1019.41,182.89Z"/>
            <path class="cls-25" d="M3675.04,2393.06c2.33,89.92-457.55,137.68-1016.21,137.68s-960.17-38.6-960.17-126.82c0-78.73,401.51-190.3,960.17-190.3s1013.83,89.43,1016.21,179.44Z"/>
            <path class="cls-8" d="M3671.04,2392.75c2.67,88.65-456.49,135.32-1013.02,135.32s-956.71-38-956.71-124.71c0-78.41,400.18-186.6,956.71-186.6s1010.3,87.23,1013.02,175.99Z"/>
            <path class="cls-30" d="M3667.04,2392.43c3,87.38-455.43,132.97-1009.82,132.97s-953.24-37.4-953.24-122.61c0-78.09,398.84-182.9,953.24-182.9s1006.76,85.04,1009.82,172.54Z"/>
            <path class="cls-35" d="M3663.04,2392.12c3.33,86.12-454.36,130.62-1006.62,130.62s-949.77-36.81-949.77-120.5c0-77.78,397.51-179.21,949.77-179.21s1003.22,82.84,1006.62,169.09Z"/>
            <path class="cls-18" d="M3659.04,2391.81c3.67,84.85-453.3,128.27-1003.42,128.27s-946.3-36.21-946.3-118.4c0-77.46,396.17-175.51,946.3-175.51s999.68,80.64,1003.42,165.64Z"/>
            <path class="cls-41" d="M3655.04,2391.49c4,83.58-452.24,125.91-1000.23,125.91s-942.83-35.62-942.83-116.29,394.84-171.81,942.83-171.81,996.15,78.45,1000.23,162.19Z"/>
            <path class="cls-45" d="M3651.04,2391.18c4.33,82.32-451.17,123.56-997.03,123.56s-939.36-35.02-939.36-114.19,393.5-168.12,939.36-168.12,992.61,76.25,997.03,158.74Z"/>
            <path class="cls-2" d="M3647.04,2390.86c4.67,81.05-450.11,121.21-993.83,121.21s-935.89-34.42-935.89-112.08,392.17-164.42,935.89-164.42,989.07,74.05,993.83,155.29Z"/>
            <path class="cls-11" d="M3643.04,2390.55c5,79.78-449.05,118.86-990.63,118.86s-932.42-33.83-932.42-109.97,390.83-160.72,932.42-160.72,985.53,71.85,990.63,151.84Z"/>
            <path class="cls-32" d="M3639.04,2390.24c5.33,78.52-447.98,116.51-987.44,116.51s-928.95-33.23-928.95-107.87,389.49-157.03,928.95-157.03,982,69.66,987.44,148.39Z"/>
            <path class="cls-6" d="M3635.04,2389.92c5.67,77.25-446.92,114.15-984.24,114.15s-925.48-32.63-925.48-105.76,388.16-153.33,925.48-153.33,978.46,67.46,984.24,144.94Z"/>
            <path class="cls-28" d="M3631.04,2389.61c6,75.98-445.86,111.8-981.04,111.8s-922.01-32.04-922.01-103.66c0-75.23,386.82-149.63,922.01-149.63s974.92,65.26,981.04,141.49Z"/>
            <path class="cls-1" d="M3627.04,2389.29c6.33,74.72-444.79,109.45-977.84,109.45s-918.54-31.44-918.54-101.55c0-74.91,385.49-145.94,918.54-145.94s971.38,63.07,977.84,138.04Z"/>
            <path class="cls-42" d="M3623.04,2388.98c6.67,73.45-443.73,107.1-974.65,107.1s-915.07-30.85-915.07-99.45c0-74.59,384.15-142.24,915.07-142.24s967.85,60.87,974.65,134.59Z"/>
            <path class="cls-37" d="M3619.04,2388.66c7,72.18-442.67,104.75-971.45,104.75s-911.6-30.25-911.6-97.34c0-74.27,382.82-138.54,911.6-138.54s964.31,58.67,971.45,131.14Z"/>
            <path class="cls-48" d="M3615.04,2388.35c7.33,70.92-441.6,102.39-968.25,102.39s-908.13-29.65-908.13-95.24c0-73.96,381.48-134.84,908.13-134.84s960.77,56.48,968.25,127.69Z"/>
            <path class="cls-36" d="M3611.03,2388.04c7.67,69.65-440.54,100.04-965.05,100.04s-904.67-29.06-904.67-93.13c0-73.64,380.15-131.15,904.67-131.15s957.23,54.28,965.05,124.24Z"/>
            <path class="cls-24" d="M3607.03,2387.72c8,68.38-439.48,97.69-961.86,97.69s-901.2-28.46-901.2-91.03c0-73.32,378.81-127.45,901.2-127.45s953.7,52.08,961.86,120.79Z"/>
            <path class="cls-23" d="M3603.03,2387.41c8.33,67.12-438.41,95.34-958.66,95.34s-897.73-27.87-897.73-88.92c0-73,377.48-123.75,897.73-123.75s950.16,49.89,958.66,117.34Z"/>
            <path class="cls-16" d="M3599.03,2387.09c8.67,65.85-437.35,92.98-955.46,92.98s-894.26-27.27-894.26-86.82c0-72.68,376.14-120.06,894.26-120.06s946.62,47.69,955.46,113.89Z"/>
            <path class="cls-19" d="M3595.03,2386.78c9,64.58-436.29,90.63-952.26,90.63s-890.79-26.67-890.79-84.71c0-72.36,374.81-116.36,890.79-116.36s943.08,45.49,952.26,110.44Z"/>
            <path class="cls-3" d="M3591.03,2386.47c9.33,63.32-435.22,88.28-949.07,88.28s-887.32-26.08-887.32-82.6c0-72.04,373.47-112.66,887.32-112.66s939.55,43.3,949.07,106.99Z"/>
            <path class="cls-34" d="M3587.03,2386.15c9.67,62.05-434.16,85.93-945.87,85.93s-883.85-25.48-883.85-80.5c0-71.73,372.14-108.97,883.85-108.97s936.01,41.1,945.87,103.54Z"/>
            <path class="cls-39" d="M3583.03,2385.84c10,60.78-433.1,83.58-942.67,83.58s-880.38-24.88-880.38-78.39c0-71.41,370.8-105.27,880.38-105.27s932.47,38.9,942.67,100.09Z"/>
            <path class="cls-21" d="M3579.03,2385.52c10.33,59.51-432.03,81.22-939.48,81.22s-876.91-24.29-876.91-76.29c0-71.09,369.47-101.57,876.91-101.57s928.93,36.7,939.48,96.64Z"/>
            <path class="cls-33" d="M3575.03,2385.21c10.67,58.25-430.97,78.87-936.28,78.87s-873.44-23.69-873.44-74.18c0-70.77,368.13-97.88,873.44-97.88s925.39,34.51,936.28,93.19Z"/>
            <path class="cls-44" d="M3571.03,2384.9c11,56.98-429.91,76.52-933.08,76.52s-869.97-23.1-869.97-72.08c0-70.45,366.8-94.18,869.97-94.18s921.86,32.31,933.08,89.74Z"/>
            <path class="cls-22" d="M3567.03,2384.58c11.33,55.71-428.84,74.17-929.88,74.17s-866.5-22.5-866.5-69.97c0-70.13,365.46-90.48,866.5-90.48s918.32,30.11,929.88,86.29Z"/>
            <path class="cls-17" d="M3563.03,2384.27c11.67,54.45-427.78,71.81-926.69,71.81s-863.03-21.9-863.03-67.87c0-69.82,364.13-86.79,863.03-86.79s914.78,27.92,926.69,82.84Z"/>
            <path class="cls-4" d="M3559.03,2383.95c12,53.18-426.72,69.46-923.49,69.46s-859.56-21.31-859.56-65.76c0-69.5,362.79-83.09,859.56-83.09s911.24,25.72,923.49,79.39Z"/>
            <path class="cls-50" d="M3555.03,2383.64c12.33,51.91-425.65,67.11-920.29,67.11s-856.09-20.71-856.09-63.66c0-69.18,361.46-79.39,856.09-79.39s907.71,23.52,920.29,75.94Z"/>
            <path class="cls-51" d="M3551.03,2383.33c12.67,50.65-424.59,64.76-917.09,64.76s-852.62-20.11-852.62-61.55c0-68.86,360.12-75.69,852.62-75.69s904.17,21.33,917.09,72.49Z"/>
            <path class="cls-5" d="M3547.03,2383.01c13,49.38-423.53,62.41-913.9,62.41s-849.16-19.52-849.16-59.44c0-68.54,358.78-72,849.16-72s900.63,19.13,913.9,69.04Z"/>
            <path class="cls-20" d="M3543.03,2382.7c13.33,48.11-422.46,60.05-910.7,60.05s-845.69-18.92-845.69-57.34c0-68.22,357.45-68.3,845.69-68.3s897.09,16.93,910.7,65.59Z"/>
            <path class="cls-40" d="M3539.03,2382.38c13.67,46.85-421.4,57.7-907.5,57.7s-842.22-18.33-842.22-55.23c0-67.91,356.11-64.6,842.22-64.6s893.56,14.74,907.5,62.14Z"/>
            <path class="cls-46" d="M3535.03,2382.07c14,45.58-420.34,55.35-904.3,55.35s-838.75-17.73-838.75-53.13c0-67.59,354.78-60.91,838.75-60.91s890.02,12.54,904.3,58.69Z"/>
            <path class="cls-14" d="M3531.03,2381.76c14.33,44.31-419.27,53-901.11,53s-835.28-17.13-835.28-51.02c0-67.27,353.44-57.21,835.28-57.21s886.48,10.34,901.11,55.24Z"/>
            <path class="cls-10" d="M3527.03,2381.44c14.67,43.05-418.21,50.64-897.91,50.64s-831.81-16.54-831.81-48.92c0-66.95,352.11-53.51,831.81-53.51s882.94,8.15,897.91,51.79Z"/>
            <path class="cls-26" d="M3523.03,2381.13c15,41.78-417.15,48.29-894.71,48.29s-828.34-15.94-828.34-46.81c0-66.63,350.77-49.82,828.34-49.82s879.41,5.95,894.71,48.34Z"/>
            <path class="cls-49" d="M3519.03,2380.81c15.33,40.51-416.08,45.94-891.51,45.94s-824.87-15.34-824.87-44.71c0-66.31,349.44-46.12,824.87-46.12s875.87,3.75,891.51,44.89Z"/>
            <path class="cls-13" d="M3515.03,2380.5c15.67,39.25-415.02,43.59-888.32,43.59s-821.4-14.75-821.4-42.6c0-66,348.1-42.42,821.4-42.42s872.33,1.56,888.32,41.44Z"/>
            <path class="cls-31" d="M3511.03,2380.19c16,37.98-413.96,41.24-885.12,41.24s-817.93-14.15-817.93-40.5c0-65.68,346.77-38.73,817.93-38.73s868.79-.64,885.12,37.99Z"/>
            <path class="cls-12" d="M3507.03,2379.87c16.33,36.71-412.89,38.88-881.92,38.88s-814.46-13.56-814.46-38.39c0-65.36,345.43-35.03,814.46-35.03s865.26-2.84,881.92,34.54Z"/>
            <path class="cls-47" d="M3503.03,2379.56c16.67,35.45-411.83,36.53-878.72,36.53s-810.99-12.96-810.99-36.28c0-65.04,344.1-31.33,810.99-31.33s861.72-5.04,878.72,31.09Z"/>
            <path class="cls-38" d="M3499.03,2379.24c17,34.18-410.77,34.18-875.53,34.18s-807.52-12.36-807.52-34.18c0-64.72,342.76-27.64,807.52-27.64s858.18-7.23,875.53,27.64Z"/>
          </g>
          <path class="cls-59" d="M3462.35,2353.41c0,5.14-6.78,9.52-16.21,10.37-80.89,7.34-450.21,39.12-782.1,39.12-398,0-701.93-30.97-772.62-38.83-9.11-1.01-15.62-5.31-15.62-10.31v-105.22s332.42,56.87,793.27,56.87c370.19,0,793.27-56.87,793.27-56.87v104.87Z"/>
          <path class="cls-57" d="M3462.35,2248.54c0-31.41-355.16-56.87-793.27-56.87s-793.27,25.46-793.27,56.87,355.16,56.87,793.27,56.87,793.27-25.46,793.27-56.87Z"/>
          <ellipse class="cls-54" cx="2661.66" cy="2247.04" rx="652.41" ry="43.16"/>
        </g>
        <g>
          <g>
            <path class="cls-7" d="M3442.58,2270.18c0,73.35-345.26,114.45-771.17,114.45s-730.97-31.76-730.97-105.11c0-60.11,305.07-160.51,730.97-160.51s771.17,77.82,771.17,151.17Z"/>
            <path class="cls-15" d="M3439.61,2269.95c.25,72.41-344.48,112.7-768.79,112.7s-728.4-31.31-728.4-103.54c0-59.88,304.08-157.77,728.4-157.77s768.54,76.19,768.79,148.61Z"/>
            <path class="cls-9" d="M3436.64,2269.71c.5,71.47-343.69,110.96-766.42,110.96s-725.82-30.87-725.82-101.98c0-59.64,303.08-155.02,725.82-155.02s765.92,74.56,766.42,146.05Z"/>
            <path class="cls-52" d="M3433.67,2269.48c.74,70.53-342.9,109.21-764.05,109.21s-723.24-30.43-723.24-100.42c0-59.4,302.09-152.28,723.24-152.28s763.29,72.93,764.05,143.48Z"/>
            <path class="cls-27" d="M3430.7,2269.25c.99,69.59-342.11,107.47-761.67,107.47s-720.67-29.99-720.67-98.85c0-59.17,301.1-149.53,720.67-149.53s760.66,71.3,761.67,140.92Z"/>
            <path class="cls-43" d="M3427.73,2269.02c1.24,68.65-341.32,105.72-759.3,105.72s-718.09-29.54-718.09-97.29c0-58.93,300.11-146.79,718.09-146.79s758.04,69.66,759.3,138.36Z"/>
            <path class="cls-29" d="M3424.76,2268.78c1.49,67.71-340.53,103.97-756.92,103.97s-715.52-29.1-715.52-95.73c0-58.7,299.12-144.04,715.52-144.04s755.41,68.03,756.92,135.8Z"/>
            <path class="cls-25" d="M3421.79,2268.55c1.73,66.76-339.74,102.23-754.55,102.23s-712.94-28.66-712.94-94.16c0-58.46,298.13-141.3,712.94-141.3s752.78,66.4,754.55,133.24Z"/>
            <path class="cls-8" d="M3418.82,2268.32c1.98,65.82-338.95,100.48-752.18,100.48s-710.36-28.22-710.36-92.6c0-58.22,297.14-138.55,710.36-138.55s750.16,64.77,752.18,130.67Z"/>
            <path class="cls-30" d="M3415.85,2268.08c2.23,64.88-338.16,98.73-749.8,98.73s-707.79-27.77-707.79-91.04c0-57.99,296.14-135.81,707.79-135.81s747.53,63.14,749.8,128.11Z"/>
            <path class="cls-35" d="M3412.88,2267.85c2.48,63.94-337.37,96.99-747.43,96.99s-705.21-27.33-705.21-89.47c0-57.75,295.15-133.06,705.21-133.06s744.9,61.51,747.43,125.55Z"/>
            <path class="cls-18" d="M3409.91,2267.62c2.72,63-336.58,95.24-745.05,95.24s-702.64-26.89-702.64-87.91c0-57.51,294.16-130.32,702.64-130.32s742.28,59.88,745.05,122.99Z"/>
            <path class="cls-41" d="M3406.94,2267.38c2.97,62.06-335.79,93.49-742.68,93.49s-700.06-26.45-700.06-86.35,293.17-127.57,700.06-127.57,739.65,58.25,742.68,120.43Z"/>
            <path class="cls-45" d="M3403.97,2267.15c3.22,61.12-335,91.75-740.3,91.75s-697.48-26-697.48-84.78,292.18-124.83,697.48-124.83,737.02,56.62,740.3,117.87Z"/>
            <path class="cls-2" d="M3401,2266.92c3.47,60.18-334.21,90-737.93,90s-694.91-25.56-694.91-83.22,291.19-122.08,694.91-122.08,734.4,54.98,737.93,115.3Z"/>
            <path class="cls-11" d="M3398.03,2266.68c3.71,59.24-333.42,88.25-735.56,88.25s-692.33-25.12-692.33-81.66,290.2-119.34,692.33-119.34,731.77,53.35,735.56,112.74Z"/>
            <path class="cls-32" d="M3395.06,2266.45c3.96,58.3-332.63,86.51-733.18,86.51s-689.76-24.67-689.76-80.09,289.2-116.59,689.76-116.59,729.14,51.72,733.18,110.18Z"/>
            <path class="cls-6" d="M3392.09,2266.22c4.21,57.36-331.84,84.76-730.81,84.76s-687.18-24.23-687.18-78.53,288.21-113.85,687.18-113.85,726.52,50.09,730.81,107.62Z"/>
            <path class="cls-28" d="M3389.12,2265.98c4.46,56.42-331.05,83.01-728.43,83.01s-684.6-23.79-684.6-76.97c0-55.86,287.22-111.1,684.6-111.1s723.89,48.46,728.43,105.06Z"/>
            <path class="cls-1" d="M3386.15,2265.75c4.7,55.48-330.26,81.27-726.06,81.27s-682.03-23.35-682.03-75.4c0-55.62,286.23-108.36,682.03-108.36s721.26,46.83,726.06,102.5Z"/>
            <path class="cls-42" d="M3383.18,2265.52c4.95,54.54-329.47,79.52-723.69,79.52s-679.45-22.9-679.45-73.84c0-55.39,285.24-105.61,679.45-105.61s718.64,45.2,723.69,99.93Z"/>
            <path class="cls-37" d="M3380.21,2265.28c5.2,53.6-328.68,77.77-721.31,77.77s-676.87-22.46-676.87-72.28c0-55.15,284.25-102.87,676.87-102.87s716.01,43.57,721.31,97.37Z"/>
            <path class="cls-48" d="M3377.24,2265.05c5.45,52.66-327.89,76.03-718.94,76.03s-674.3-22.02-674.3-70.71c0-54.91,283.26-100.12,674.3-100.12s713.38,41.93,718.94,94.81Z"/>
            <path class="cls-36" d="M3374.27,2264.82c5.69,51.72-327.11,74.28-716.56,74.28s-671.72-21.58-671.72-69.15c0-54.68,282.26-97.38,671.72-97.38s710.76,40.3,716.56,92.25Z"/>
            <path class="cls-24" d="M3371.3,2264.58c5.94,50.77-326.32,72.53-714.19,72.53s-669.15-21.13-669.15-67.59c0-54.44,281.27-94.63,669.15-94.63s708.13,38.67,714.19,89.69Z"/>
            <path class="cls-23" d="M3368.33,2264.35c6.19,49.83-325.53,70.79-711.81,70.79s-666.57-20.69-666.57-66.02c0-54.2,280.28-91.89,666.57-91.89s705.5,37.04,711.81,87.12Z"/>
            <path class="cls-16" d="M3365.36,2264.12c6.44,48.89-324.74,69.04-709.44,69.04s-663.99-20.25-663.99-64.46c0-53.97,279.29-89.14,663.99-89.14s702.87,35.41,709.44,84.56Z"/>
            <path class="cls-19" d="M3362.39,2263.89c6.68,47.95-323.95,67.3-707.07,67.3s-661.42-19.8-661.42-62.9c0-53.73,278.3-86.4,661.42-86.4s700.25,33.78,707.07,82Z"/>
            <path class="cls-3" d="M3359.42,2263.65c6.93,47.01-323.16,65.55-704.69,65.55s-658.84-19.36-658.84-61.33c0-53.49,277.31-83.65,658.84-83.65s697.62,32.15,704.69,79.44Z"/>
            <path class="cls-34" d="M3356.45,2263.42c7.18,46.07-322.37,63.8-702.32,63.8s-656.27-18.92-656.27-59.77c0-53.26,276.32-80.91,656.27-80.91s694.99,30.52,702.32,76.88Z"/>
            <path class="cls-39" d="M3353.48,2263.19c7.43,45.13-321.58,62.06-699.94,62.06s-653.69-18.48-653.69-58.21c0-53.02,275.32-78.16,653.69-78.16s692.37,28.89,699.94,74.32Z"/>
            <path class="cls-21" d="M3350.51,2262.95c7.67,44.19-320.79,60.31-697.57,60.31s-651.11-18.03-651.11-56.64c0-52.78,274.33-75.42,651.11-75.42s689.74,27.25,697.57,71.75Z"/>
            <path class="cls-33" d="M3347.53,2262.72c7.92,43.25-320,58.56-695.2,58.56s-648.54-17.59-648.54-55.08c0-52.55,273.34-72.67,648.54-72.67s687.11,25.62,695.2,69.19Z"/>
            <path class="cls-44" d="M3344.56,2262.49c8.17,42.31-319.21,56.82-692.82,56.82s-645.96-17.15-645.96-53.52c0-52.31,272.35-69.93,645.96-69.93s684.49,23.99,692.82,66.63Z"/>
            <path class="cls-22" d="M3341.59,2262.25c8.42,41.37-318.42,55.07-690.45,55.07s-643.39-16.71-643.39-51.95c0-52.08,271.36-67.18,643.39-67.18s681.86,22.36,690.45,64.07Z"/>
            <path class="cls-17" d="M3338.62,2262.02c8.66,40.43-317.63,53.32-688.07,53.32s-640.81-16.26-640.81-50.39c0-51.84,270.37-64.44,640.81-64.44s679.23,20.73,688.07,61.51Z"/>
            <path class="cls-4" d="M3335.65,2261.79c8.91,39.49-316.84,51.58-685.7,51.58s-638.23-15.82-638.23-48.83c0-51.6,269.38-61.69,638.23-61.69s676.61,19.1,685.7,58.95Z"/>
            <path class="cls-50" d="M3332.68,2261.55c9.16,38.55-316.05,49.83-683.32,49.83s-635.66-15.38-635.66-47.26c0-51.37,268.38-58.95,635.66-58.95s673.98,17.47,683.32,56.38Z"/>
            <path class="cls-51" d="M3329.71,2261.32c9.41,37.61-315.26,48.08-680.95,48.08s-633.08-14.93-633.08-45.7c0-51.13,267.39-56.2,633.08-56.2s671.35,15.84,680.95,53.82Z"/>
            <path class="cls-5" d="M3326.74,2261.09c9.65,36.67-314.47,46.34-678.58,46.34s-630.51-14.49-630.51-44.14c0-50.89,266.4-53.46,630.51-53.46s668.73,14.2,678.58,51.26Z"/>
            <path class="cls-20" d="M3323.77,2260.85c9.9,35.72-313.68,44.59-676.2,44.59s-627.93-14.05-627.93-42.57c0-50.66,265.41-50.71,627.93-50.71s666.1,12.57,676.2,48.7Z"/>
            <path class="cls-40" d="M3320.8,2260.62c10.15,34.78-312.89,42.84-673.83,42.84s-625.35-13.61-625.35-41.01c0-50.42,264.42-47.97,625.35-47.97s663.47,10.94,673.83,46.14Z"/>
            <path class="cls-46" d="M3317.83,2260.39c10.4,33.84-312.1,41.1-671.45,41.1s-622.78-13.16-622.78-39.45c0-50.18,263.43-45.22,622.78-45.22s660.85,9.31,671.45,43.58Z"/>
            <path class="cls-14" d="M3314.86,2260.15c10.64,32.9-311.31,39.35-669.08,39.35s-620.2-12.72-620.2-37.88c0-49.95,262.44-42.48,620.2-42.48s658.22,7.68,669.08,41.01Z"/>
            <path class="cls-10" d="M3311.89,2259.92c10.89,31.96-310.52,37.6-666.71,37.6s-617.63-12.28-617.63-36.32c0-49.71,261.44-39.73,617.63-39.73s655.59,6.05,666.71,38.45Z"/>
            <path class="cls-26" d="M3308.92,2259.69c11.14,31.02-309.73,35.86-664.33,35.86s-615.05-11.84-615.05-34.76c0-49.47,260.45-36.99,615.05-36.99s652.97,4.42,664.33,35.89Z"/>
            <path class="cls-49" d="M3305.95,2259.45c11.39,30.08-308.95,34.11-661.96,34.11s-612.47-11.39-612.47-33.19c0-49.24,259.46-34.24,612.47-34.24s650.34,2.79,661.96,33.33Z"/>
            <path class="cls-13" d="M3302.98,2259.22c11.63,29.14-308.16,32.36-659.58,32.36s-609.9-10.95-609.9-31.63c0-49,258.47-31.5,609.9-31.5s647.71,1.15,659.58,30.77Z"/>
            <path class="cls-31" d="M3300.01,2258.99c11.88,28.2-307.37,30.62-657.21,30.62s-607.32-10.51-607.32-30.07c0-48.77,257.48-28.75,607.32-28.75s645.09-.48,657.21,28.2Z"/>
            <path class="cls-12" d="M3297.04,2258.76c12.13,27.26-306.58,28.87-654.83,28.87s-604.75-10.07-604.75-28.5c0-48.53,256.49-26.01,604.75-26.01s642.46-2.11,654.83,25.64Z"/>
            <path class="cls-47" d="M3294.07,2258.52c12.38,26.32-305.79,27.12-652.46,27.12s-602.17-9.62-602.17-26.94c0-48.29,255.5-23.26,602.17-23.26s639.83-3.74,652.46,23.08Z"/>
            <path class="cls-38" d="M3291.1,2258.29c12.62,25.38-305,25.38-650.09,25.38s-599.59-9.18-599.59-25.38c0-48.06,254.5-20.52,599.59-20.52s637.21-5.37,650.09,20.52Z"/>
          </g>
          <path class="cls-58" d="M3263.86,2239.11c0,3.82-5.04,7.07-12.03,7.7-60.06,5.45-334.29,29.05-580.71,29.05-295.52,0-521.19-23-573.68-28.83-6.76-.75-11.6-3.94-11.6-7.66v-78.13s246.82,42.23,589.01,42.23c274.87,0,589.01-42.23,589.01-42.23v77.87Z"/>
          <path class="cls-53" d="M3263.86,2161.24c0-23.32-263.71-42.23-589.01-42.23s-589.01,18.91-589.01,42.23,263.71,42.23,589.01,42.23,589.01-18.91,589.01-42.23Z"/>
          <ellipse class="cls-55" cx="2669.35" cy="2160.13" rx="484.42" ry="32.04"/>
        </g>
      </g>
    </g>
  </g>
</svg>